<?xml version="1.0" encoding="UTF-8" standalone="no"?>
<!DOCTYPE svg PUBLIC "-//W3C//DTD SVG 1.1//EN" "http://www.w3.org/Graphics/SVG/1.1/DTD/svg11.dtd">
<svg version="1.1" xmlns="http://www.w3.org/2000/svg" xmlns:xlink="http://www.w3.org/1999/xlink" preserveAspectRatio="xMidYMid meet" viewBox="0 0 660 660" width="660" height="660"><defs><path d="M660 330C660 512.13 512.13 660 330 660C147.87 660 0 512.13 0 330C0 147.87 147.87 0 330 0C512.13 0 660 147.87 660 330Z" id="a25jAQRHRn"></path><clipPath id="clipePcDO7tR7"><use xlink:href="#a25jAQRHRn" opacity="1"></use></clipPath><path d="M330 323.94L454.09 323.94L596.52 323.94L645 323.94L640.45 323.94" id="a7DArJM7GQ"></path><path d="M380 325C380 352.6 357.6 375 330 375C302.4 375 280 352.6 280 325C280 297.4 302.4 275 330 275C357.6 275 380 297.4 380 325Z" id="hYLFOCcLE"></path></defs><g><g><g><use xlink:href="#a25jAQRHRn" opacity="1" fill="#3a6b6a" fill-opacity="0"></use><g clip-path="url(#clipePcDO7tR7)"><use xlink:href="#a25jAQRHRn" opacity="1" fill-opacity="0" stroke="#adf5ff" stroke-width="120" stroke-opacity="1"></use></g></g><g><g><use xlink:href="#a7DArJM7GQ" opacity="1" fill-opacity="0" stroke="#adf5ff" stroke-width="60" stroke-opacity="1"></use></g></g><g><use xlink:href="#hYLFOCcLE" opacity="1" fill="#adf5ff" fill-opacity="1"></use></g></g></g></svg>